<?xml version="1.0" standalone="no"?> <!DOCTYPE svg PUBLIC "-//W3C//DTD SVG 20010904//EN" "http://www.w3.org/TR/2001/REC-SVG-20010904/DTD/svg10.dtd"> <svg version="1.0" xmlns="http://www.w3.org/2000/svg" width="600.000000pt" height="600.000000pt" viewBox="0 0 600.000000 600.000000" preserveAspectRatio="xMidYMid meet"> <g transform="translate(0.000000,600.000000) scale(0.100000,-0.100000)" fill="#ffcf66" stroke="none"> <path d="M2215 4780 c-205 -22 -389 -107 -538 -249 -96 -92 -155 -172 -207 -283 -73 -156 -82 -206 -87 -453 -6 -247 3 -323 49 -455 55 -156 126 -257 347 -495 l121 -130 -189 -3 c-188 -2 -190 -3 -193 -25 -2 -12 -1 -232 2 -488 l5 -467 285 -288 285 -289 965 0 c1023 0 1002 -1 1145 47 308 105 552 369 632 685 14 55 17 115 18 313 0 277 -6 313 -75 459 -54 113 -73 135 -304 369 l-201 202 143 0 142 0 0 483 -1 482 -292 298 -292 297 -845 -1 c-465 -1 -876 -5 -915 -9z m1668 -1326 c26 -20 47 -39 47 -43 0 -7 -2408 -7 -2414 0 -2 2 -6 21 -10 42 l-7 37 1169 0 1169 0 46 -36z m153 -151 c12 -16 26 -38 33 -50 l11 -22 -1242 2 -1242 2 -23 40 c-12 22 -23 43 -23 48 0 4 555 7 1233 7 l1233 0 20 -27z m104 -190 c40 -106 50 -179 50 -373 0 -233 -18 -330 -85 -460 -107 -206 -298 -360 -524 -423 -74 -20 -99 -21 -1013 -24 -515 -1 -939 1 -942 6 -5 8 -9 339 -7 629 l1 132 804 0 c675 0 805 2 815 14 8 9 11 52 9 127 l-3 114 -555 6 c-625 6 -616 5 -775 84 -99 49 -189 116 -243 183 l-35 42 1241 0 1241 0 21 -57z"/> </g> </svg>